<svg id="Les Colibris" data-name="Les Colibris" xmlns="http://www.w3.org/2000/svg" viewBox="0 0 104.4 118.13"><defs><style>.cls-1{fill:#f7a941;}.cls-2{fill:#e63323;}.cls-3{fill:#a84d97;}.cls-4{fill:#36a9e1;}.cls-5{fill:#95c23d;}</style></defs><circle class="cls-1" cx="58.68" cy="61.13" r="30.01"/><path class="cls-2" d="M119,12.34,99.32,21.48c-2.25.7-10.73-3-16.17,2.64a22.07,22.07,0,0,0-5.27,21.41c2.11,7.89-2.68,12.15-15.11,20C48.12,74.9,42.91,108.8,71.9,118.12L77.54,112c-20.16-1-27-17.69-21.36-28.06s32.51-7.28,37.7-17.27c6.86-13.19-8.4-25.84-5.63-33.15C91.29,25.71,102.31,22,119,12.34Z" transform="translate(-14.6 0.01)"/><path class="cls-1" d="M63.29,30.67a1.62,1.62,0,0,1-1.52-1.13L52.94,2.06a1.59,1.59,0,0,1,3-1l8.85,27.47a1.59,1.59,0,0,1-1,2A1.45,1.45,0,0,1,63.29,30.67Z" transform="translate(-14.6 0.01)"/><path class="cls-3" d="M64.42,51.11a1.58,1.58,0,0,1-1.13-.49L43.05,30.06a1.61,1.61,0,0,1-.2-2.26,1.59,1.59,0,0,1,2.25-.2,1.34,1.34,0,0,1,.21.2L65.59,48.38a1.6,1.6,0,0,1-1.17,2.73Z" transform="translate(-14.6 0.01)"/><path class="cls-4" d="M43.24,48.35a1.78,1.78,0,0,1-.56-.1l-27-10.07a1.59,1.59,0,0,1,1.12-3h0L43.81,45.26a1.59,1.59,0,0,1-.55,3.09Z" transform="translate(-14.6 0.01)"/><path class="cls-5" d="M30.46,70.27a1.6,1.6,0,0,1-.36-3.16l28.07-6.65a1.6,1.6,0,1,1,.9,3.07l-.17,0L30.83,70.18A2.49,2.49,0,0,1,30.46,70.27Z" transform="translate(-14.6 0.01)"/></svg>