<svg id="Calque_1" data-name="Calque 1" xmlns="http://www.w3.org/2000/svg" viewBox="0 0 104.55 118.13"><defs><style>.cls-1{fill:#f7a941;}.cls-1,.cls-2,.cls-3,.cls-4,.cls-5{opacity:0.5;}.cls-2{fill:#e63323;}.cls-3{fill:#a84d97;}.cls-4{fill:#36a9e1;}.cls-5{fill:#95c23d;}</style></defs><ellipse class="cls-1" cx="45.8" cy="61.06" rx="30.06" ry="30.05"/><path class="cls-2" d="M-.08,12.23l19.72,9.15c2.25.7,10.75-3,16.2,2.64a22.09,22.09,0,0,1,5.28,21.43c-2.11,7.9,2.68,12.17,15.14,20,14.67,9.38,19.89,43.32-9.15,52.65L41.46,112c20.2-1,27.05-17.71,21.4-28.09S30.29,76.62,25.09,66.62c-6.87-13.21,8.42-25.87,5.64-33.19C27.68,25.61,16.64,21.9-.08,12.23Z" transform="translate(0.08 0)"/><path class="cls-1" d="M55.74,30.58a1.63,1.63,0,0,0,1.52-1.13L66.1,1.93a1.59,1.59,0,0,0-3-1l-8.87,27.5a1.6,1.6,0,0,0,1,2A1.75,1.75,0,0,0,55.74,30.58Z" transform="translate(0.08 0)"/><path class="cls-3" d="M54.6,51a1.59,1.59,0,0,0,1.14-.49L76,30a1.61,1.61,0,0,0,.2-2.27A1.6,1.6,0,0,0,74,27.49h0a1.34,1.34,0,0,0-.21.2L53.43,48.31A1.6,1.6,0,0,0,54.6,51Z" transform="translate(0.08 0)"/><path class="cls-4" d="M75.82,48.28a2.13,2.13,0,0,0,.56-.1L103.43,38.1a1.61,1.61,0,0,0-1.12-3h0L75.25,45.18a1.6,1.6,0,0,0,.55,3.1Z" transform="translate(0.08 0)"/><path class="cls-5" d="M88.63,70.22A1.6,1.6,0,0,0,89,67.06L60.87,60.4a1.61,1.61,0,0,0-1,3.06l.07,0h.17l28.13,6.65A2.22,2.22,0,0,0,88.63,70.22Z" transform="translate(0.08 0)"/></svg>