<svg id="Layer_1" enable-background="new 0 0 512 512" height="512" viewBox="0 0 512 512" width="512" xmlns="http://www.w3.org/2000/svg"><g><path d="m432 40v432c0 8.84-7.16 16-16 16h-320c-8.84 0-16-7.16-16-16v-432c0-8.84 7.16-16 16-16h320c8.84 0 16 7.16 16 16z" fill="#e2e0e0"/><path d="m360.03 192.14c-20.51 54.5-94.37 85.2-97.99 86.68-3.771 1.536-8.125 1.61-12.08 0-4.21-1.72-103.23-42.89-103.23-115 0-55.304 63.937-87.381 109.27-54.85 53.513-38.401 130.388 13.07 104.03 83.17z" fill="#f79caf"/><path d="m432 440v32c0 8.84-7.16 16-16 16h-320c-8.84 0-16-7.16-16-16v-432c0-8.84 7.16-16 16-16h32v320c0 53.02 42.98 96 96 96z" fill="#cecccc"/><path d="m464 0c-8.837 0-16 7.164-16 16v8h-384v-8c0-8.836-7.163-16-16-16s-16 7.164-16 16v48c0 8.836 7.163 16 16 16s16-7.164 16-16v-8h384v8c0 8.836 7.163 16 16 16s16-7.164 16-16v-48c0-8.836-7.163-16-16-16z" fill="#a18b76"/><path d="m464 432c-8.837 0-16 7.164-16 16v8h-384v-8c0-8.836-7.163-16-16-16s-16 7.164-16 16v48c0 8.836 7.163 16 16 16s16-7.164 16-16v-8h384v8c0 8.836 7.163 16 16 16s16-7.164 16-16v-48c0-8.836-7.163-16-16-16z" fill="#a18b76"/><path d="m360.03 192.14c-20.51 54.5-94.37 85.2-97.99 86.68-3.77 1.54-8.13 1.61-12.08 0-4.21-1.72-103.23-42.89-103.23-115 0-23.66 11.7-43.06 28.64-54.98-1.07 4.76-1.64 9.77-1.64 14.98 0 72.11 99.02 113.28 103.23 115 3.95 1.61 8.31 1.54 12.08 0 2.61-1.07 41.68-17.3 70.99-46.68z" fill="#e3889b"/><g fill="#98d7ce"><path d="m344 352h-176c-8.837 0-16-7.164-16-16s7.163-16 16-16h176c8.837 0 16 7.164 16 16s-7.163 16-16 16z"/><path d="m344 416h-176c-8.837 0-16-7.164-16-16s7.163-16 16-16h176c8.837 0 16 7.164 16 16s-7.163 16-16 16z"/></g></g></svg>