<svg id="Calque_1" data-name="Calque 1" xmlns="http://www.w3.org/2000/svg" viewBox="0 0 104.36 117.99"><defs><style>.cls-1{fill:#f7a941;}.cls-1,.cls-2,.cls-3,.cls-4,.cls-5{opacity:0.5;}.cls-2{fill:#e63323;}.cls-3{fill:#a84d97;}.cls-4{fill:#36a9e1;}.cls-5{fill:#95c23d;}</style></defs><circle class="cls-1" cx="58.64" cy="60.99" r="30.01"/><path class="cls-2" d="M104.4,12.35,84.72,21.49c-2.25.7-10.73-3-16.17,2.64a22.07,22.07,0,0,0-5.27,21.41c2.11,7.89-2.68,12.15-15.11,20-14.65,9.37-19.86,43.27,9.13,52.59L62.94,112c-20.16-1-27-17.69-21.36-28.06s32.51-7.28,37.7-17.27c6.86-13.19-8.4-25.84-5.63-33.15C76.69,25.72,87.71,22,104.4,12.35Z" transform="translate(-0.04 -0.14)"/><path class="cls-1" d="M48.69,30.68a1.62,1.62,0,0,1-1.52-1.13L38.34,2.07A1.58,1.58,0,0,1,39.55.18a1.59,1.59,0,0,1,1.79.89l8.85,27.47a1.59,1.59,0,0,1-1,2A1.5,1.5,0,0,1,48.69,30.68Z" transform="translate(-0.04 -0.14)"/><path class="cls-3" d="M49.82,51.12a1.55,1.55,0,0,1-1.13-.49L28.45,30.07a1.6,1.6,0,0,1,2-2.47h0a1.34,1.34,0,0,1,.21.2L51,48.39a1.6,1.6,0,0,1-1.17,2.73Z" transform="translate(-0.04 -0.14)"/><path class="cls-4" d="M28.64,48.36a1.78,1.78,0,0,1-.56-.1l-27-10.07a1.6,1.6,0,0,1,1.12-3h0l27,10.08a1.59,1.59,0,0,1-.55,3.09Z" transform="translate(-0.04 -0.14)"/><path class="cls-5" d="M15.86,70.28a1.6,1.6,0,0,1-.36-3.16l28.07-6.65a1.6,1.6,0,0,1,1,3.05l-.07,0H44.3L16.23,70.19A2.22,2.22,0,0,1,15.86,70.28Z" transform="translate(-0.04 -0.14)"/></svg>