<svg id="Colibris" data-name="Colibris" xmlns="http://www.w3.org/2000/svg" viewBox="0 0 130.23 123.73"><defs><style>.cls-1{fill:#f7a941;}.cls-2{fill:#e63323;}.cls-3{fill:#a84d97;}.cls-4{fill:#36a9e1;}.cls-5{fill:#95c23d;}</style></defs><circle class="cls-1" cx="297.43" cy="271.96" r="26.63" transform="translate(-335.95 72.24) rotate(-45)"/><path class="cls-2" d="M338,228.68l-17.46,8.11c-2,.62-9.52-2.65-14.35,2.34a19.61,19.61,0,0,0-4.68,19c1.87,7-2.38,10.78-13.41,17.78-13,8.28-17.62,38.36,8.11,46.63l5-5.46c-17.89-.93-23.94-15.7-18.95-24.9s28.84-6.46,33.45-15.33c6.09-11.7-7.45-22.93-5-29.41C313.41,240.54,323.19,237.26,338,228.68Z" transform="translate(-230.76 -217.73)"/><path class="cls-1" d="M288.57,244.94a1.42,1.42,0,0,1-1.35-1l-7.84-24.38a1.41,1.41,0,1,1,2.69-.86l7.85,24.37a1.42,1.42,0,0,1-.91,1.78A1.35,1.35,0,0,1,288.57,244.94Z" transform="translate(-230.76 -217.73)"/><path class="cls-3" d="M289.57,263.08a1.4,1.4,0,0,1-1-.43L270.61,244.4a1.42,1.42,0,1,1,2-2l18,18.26a1.42,1.42,0,0,1,0,2A1.44,1.44,0,0,1,289.57,263.08Z" transform="translate(-230.76 -217.73)"/><path class="cls-4" d="M270.77,260.63a1.41,1.41,0,0,1-.49-.09l-24-8.93a1.41,1.41,0,1,1,1-2.65l24,8.93a1.41,1.41,0,0,1-.49,2.74Z" transform="translate(-230.76 -217.73)"/><path class="cls-5" d="M259.43,280.08a1.42,1.42,0,0,1-.32-2.8l24.91-5.9a1.42,1.42,0,1,1,.65,2.76L259.76,280A1.24,1.24,0,0,1,259.43,280.08Z" transform="translate(-230.76 -217.73)"/><path class="cls-1" d="M238.17,340.8a3.73,3.73,0,0,1-1.21.5,5.44,5.44,0,0,1-1.3.16,4.42,4.42,0,0,1-2.72-.75,4.67,4.67,0,0,1-1.48-1.94,8.46,8.46,0,0,1-.59-2.6c-.08-.95-.11-1.87-.11-2.75V318.06a.93.93,0,0,1,.15-.26l.19-.21.25-.12h.79a1.1,1.1,0,0,1,.35.25,1.33,1.33,0,0,1,.25.34q0,3.87,0,7.68t0,7.68c0,.52,0,1.14,0,1.85a8.88,8.88,0,0,0,.32,2,4,4,0,0,0,.86,1.65,2.19,2.19,0,0,0,1.73.68,2.13,2.13,0,0,0,.8-.13,2.25,2.25,0,0,0,.56-.28l.41-.28a.63.63,0,0,1,.39-.13.41.41,0,0,1,.35.19,1.23,1.23,0,0,1,.17.44,3.07,3.07,0,0,1,0,.53v.41Z" transform="translate(-230.76 -217.73)"/><path class="cls-1" d="M252,333.58l-.26.28-5.07.17c-1.69.06-3.38.08-5.08.08a7.89,7.89,0,0,0,.35,2.17,5.83,5.83,0,0,0,.89,1.76,4.09,4.09,0,0,0,1.5,1.18,5.19,5.19,0,0,0,2.19.42,5.11,5.11,0,0,0,1.48-.22c.5-.15,1-.3,1.4-.47s.79-.33,1.1-.47a1.93,1.93,0,0,1,.55-.22.46.46,0,0,1,.51.41,3.29,3.29,0,0,1,.08.72v.47l-.19.34a8.06,8.06,0,0,1-2.38.95,11.82,11.82,0,0,1-2.55.31,7.92,7.92,0,0,1-3.31-.61,5.32,5.32,0,0,1-2.13-1.71,7,7,0,0,1-1.15-2.61,14.78,14.78,0,0,1-.35-3.3,9.56,9.56,0,0,1,.44-3,6.39,6.39,0,0,1,1.31-2.31,5.84,5.84,0,0,1,2.15-1.49,7.57,7.57,0,0,1,3-.53,5.93,5.93,0,0,1,2.78.59,4.77,4.77,0,0,1,1.77,1.62,7,7,0,0,1,1,2.34,13.74,13.74,0,0,1,.28,2.76A1,1,0,0,1,252,333.58Zm-2.15-3.13a4.6,4.6,0,0,0-.7-1.36,3.49,3.49,0,0,0-1.13-1,3.36,3.36,0,0,0-1.59-.36,4.61,4.61,0,0,0-4.84,4.49h1c1.27,0,2.55,0,3.81,0s2.53-.09,3.79-.19A7.12,7.12,0,0,0,249.88,330.45Z" transform="translate(-230.76 -217.73)"/><path class="cls-1" d="M264.13,339.31a3.68,3.68,0,0,1-1.21,1.24,5.84,5.84,0,0,1-1.7.69,8.11,8.11,0,0,1-1.88.22,11.5,11.5,0,0,1-2.08-.19,9.92,9.92,0,0,1-2-.56l-.25-.38v-1.1a.52.52,0,0,1,.19-.42.62.62,0,0,1,.44-.18,1.79,1.79,0,0,1,.6.16c.25.11.54.22.88.35s.69.24,1.08.34a4.42,4.42,0,0,0,1.21.16,6.12,6.12,0,0,0,1.1-.11,3.26,3.26,0,0,0,1-.38,2.26,2.26,0,0,0,.77-.7,1.87,1.87,0,0,0,.3-1.07A1.82,1.82,0,0,0,262,336a5.94,5.94,0,0,0-1.4-1c-.56-.28-1.16-.56-1.82-.82a8.55,8.55,0,0,1-1.82-1,5.23,5.23,0,0,1-1.4-1.45,3.86,3.86,0,0,1-.57-2.18,3.25,3.25,0,0,1,1.45-2.83,4.78,4.78,0,0,1,1.51-.64,7.63,7.63,0,0,1,1.72-.2,14.83,14.83,0,0,1,4,.56c.06.09.13.17.19.25a1.35,1.35,0,0,1,.16.29v.88a.74.74,0,0,1-.14.39.45.45,0,0,1-.36.2,4.4,4.4,0,0,1-.95-.11c-.31-.07-.63-.16-1-.25l-1-.27a4.07,4.07,0,0,0-1-.12,5,5,0,0,0-.92.08,2.48,2.48,0,0,0-.88.3,1.86,1.86,0,0,0-.65.56,1.49,1.49,0,0,0-.25.91,1.9,1.9,0,0,0,.57,1.43,5.44,5.44,0,0,0,1.39,1,19.63,19.63,0,0,0,1.83.82,9.3,9.3,0,0,1,1.82,1,5.19,5.19,0,0,1,1.39,1.45,3.86,3.86,0,0,1,.57,2.18A3.65,3.65,0,0,1,264.13,339.31Z" transform="translate(-230.76 -217.73)"/><path class="cls-1" d="M285.34,339.7l-.25.35a14.35,14.35,0,0,1-1.62.58,18.3,18.3,0,0,1-1.84.45c-.63.13-1.25.22-1.87.29s-1.18.09-1.71.09a12.21,12.21,0,0,1-4.69-.83,9,9,0,0,1-3.32-2.34,9.78,9.78,0,0,1-2-3.63,16.07,16.07,0,0,1-.64-4.69c0-3.58.85-6.32,2.56-8.2s4.39-2.83,8.05-2.83a26.11,26.11,0,0,1,3.33.22,14.1,14.1,0,0,1,3.24.85l.25.38v1a.52.52,0,0,1-.19.41.65.65,0,0,1-.44.16l-.16-.05-.19-.08.13.1a24,24,0,0,0-2.94-.85,14,14,0,0,0-3-.31,11,11,0,0,0-3.88.62,6.7,6.7,0,0,0-2.65,1.81A7.32,7.32,0,0,0,270,326.1a13.83,13.83,0,0,0-.49,3.87,13.27,13.27,0,0,0,.52,3.8,8.25,8.25,0,0,0,1.59,3,7.6,7.6,0,0,0,2.66,2,8.69,8.69,0,0,0,3.77.76,12.65,12.65,0,0,0,3.29-.43c1.07-.28,2.14-.6,3.18-.95h0a.88.88,0,0,1,.31-.07.44.44,0,0,1,.46.24,1.27,1.27,0,0,1,.11.52Z" transform="translate(-230.76 -217.73)"/><path class="cls-1" d="M302.06,336.77a6.74,6.74,0,0,1-1.3,2.46,6.12,6.12,0,0,1-2.2,1.63,7.47,7.47,0,0,1-3.11.6,7.69,7.69,0,0,1-3.12-.58,6,6,0,0,1-2.23-1.63,6.84,6.84,0,0,1-1.34-2.48,10.76,10.76,0,0,1-.44-3.13,11.61,11.61,0,0,1,.41-3.2A6.43,6.43,0,0,1,290,328a5.65,5.65,0,0,1,2.22-1.54,10,10,0,0,1,6.42,0,5.43,5.43,0,0,1,2.18,1.54,6.56,6.56,0,0,1,1.26,2.42,11.61,11.61,0,0,1,.41,3.2A11.12,11.12,0,0,1,302.06,336.77ZM300.22,331a4.39,4.39,0,0,0-.84-1.75,3.89,3.89,0,0,0-1.56-1.11,6.32,6.32,0,0,0-2.37-.39,5.62,5.62,0,0,0-2.36.44,4.18,4.18,0,0,0-1.58,1.22,5.35,5.35,0,0,0-.91,1.87,8.72,8.72,0,0,0-.3,2.34,8.61,8.61,0,0,0,.3,2.29,5.3,5.3,0,0,0,.94,1.92,4.73,4.73,0,0,0,1.6,1.3,4.92,4.92,0,0,0,2.28.49,5,5,0,0,0,2.39-.52,4.4,4.4,0,0,0,1.55-1.38,6.07,6.07,0,0,0,.85-2,10.45,10.45,0,0,0,.27-2.4A9.54,9.54,0,0,0,300.22,331Z" transform="translate(-230.76 -217.73)"/><path class="cls-1" d="M313.54,340.8a3.73,3.73,0,0,1-1.21.5,5.44,5.44,0,0,1-1.3.16,4.42,4.42,0,0,1-2.72-.75,4.67,4.67,0,0,1-1.48-1.94,8.46,8.46,0,0,1-.59-2.6c-.08-.95-.11-1.87-.11-2.75V318.06a.76.76,0,0,1,.16-.26l.18-.21.25-.12h.79a1.1,1.1,0,0,1,.35.25,1.33,1.33,0,0,1,.25.34q0,3.87,0,7.68t0,7.68c0,.52,0,1.14,0,1.85a8.88,8.88,0,0,0,.32,2,4,4,0,0,0,.86,1.65,2.19,2.19,0,0,0,1.73.68,2.13,2.13,0,0,0,.8-.13,2.25,2.25,0,0,0,.56-.28l.41-.28a.63.63,0,0,1,.39-.13.41.41,0,0,1,.35.19,1.23,1.23,0,0,1,.17.44,3.07,3.07,0,0,1,.05.53v.41Z" transform="translate(-230.76 -217.73)"/><path class="cls-1" d="M317.53,323.31l-.25.09h-1.2l-.25-.09-.25-.22-.12-.25v-1.2a.93.93,0,0,1,.15-.26c.06-.08.13-.14.19-.21l.25-.12h1.2a1.07,1.07,0,0,1,.37.23.87.87,0,0,1,.25.36v1.2A.84.84,0,0,1,317.53,323.31Zm-.13,17.76a1.08,1.08,0,0,1-.31.2h-.91l-.38-.31-.16-.28V326.76a1.12,1.12,0,0,1,.38-.5l.22-.09h.82l.22.09a1.09,1.09,0,0,1,.37.5v14A1.5,1.5,0,0,1,317.4,341.07Z" transform="translate(-230.76 -217.73)"/><path class="cls-1" d="M332.9,335.89a8.77,8.77,0,0,1-1.52,2.85,7.46,7.46,0,0,1-2.47,2,7.33,7.33,0,0,1-3.34.74c-.61,0-1.22,0-1.82,0s-1.22-.08-1.83-.16a2,2,0,0,1-.47.06H321a.42.42,0,0,1-.36-.2.74.74,0,0,1-.14-.39V318.06a1.38,1.38,0,0,1,.22-.34.7.7,0,0,1,.35-.25h.81a1,1,0,0,1,.35.25,1.12,1.12,0,0,1,.25.34v9.71a5.67,5.67,0,0,1,2.09-1.34A7.23,7.23,0,0,1,327,326q3.3,0,4.84,1.63a6.84,6.84,0,0,1,1.54,4.87A10.91,10.91,0,0,1,332.9,335.89Zm-2.5-6.83a4.16,4.16,0,0,0-3.36-1.23,5,5,0,0,0-1.52.25,5.64,5.64,0,0,0-1.48.72,4.29,4.29,0,0,0-1.11,1.14,2.59,2.59,0,0,0-.44,1.47v8.13c.5,0,1,.07,1.52.08l1.56,0a5.17,5.17,0,0,0,2.57-.61,5.63,5.63,0,0,0,1.84-1.62,7,7,0,0,0,1.1-2.29,9.67,9.67,0,0,0,.36-2.61A5.17,5.17,0,0,0,330.4,329.06Z" transform="translate(-230.76 -217.73)"/><path class="cls-1" d="M344.82,327.93l-.32.18-.31,0a2.3,2.3,0,0,0-.58-.12H343a3.79,3.79,0,0,0-1.43.27,3.74,3.74,0,0,0-1.2.75,3.63,3.63,0,0,0-.81,1.15,3.37,3.37,0,0,0-.3,1.41v9.08a1.12,1.12,0,0,1-.25.34,1,1,0,0,1-.35.25h-.78a1.11,1.11,0,0,1-.38-.23,1,1,0,0,1-.25-.36V326.76a1,1,0,0,1,.34-.5l.26-.09h.78l.22.09a1.05,1.05,0,0,1,.38.5v1a5.14,5.14,0,0,1,1.91-1.29,6.33,6.33,0,0,1,2.26-.41l.57,0a2.8,2.8,0,0,1,.57.08,1.47,1.47,0,0,1,.25.25,1.24,1.24,0,0,1,.18.31v.91Z" transform="translate(-230.76 -217.73)"/><path class="cls-1" d="M348.49,323.31l-.25.09h-1.19l-.25-.09-.26-.22-.12-.25v-1.2a.76.76,0,0,1,.16-.26l.18-.21.26-.12h1.19a1.21,1.21,0,0,1,.38.23,1.12,1.12,0,0,1,.25.36v1.2A.85.85,0,0,1,348.49,323.31Zm-.12,17.76a1.12,1.12,0,0,1-.32.2h-.91l-.38-.31-.15-.28V326.76a1.09,1.09,0,0,1,.37-.5l.22-.09H348l.22.09a1.12,1.12,0,0,1,.38.5v14A3,3,0,0,1,348.37,341.07Z" transform="translate(-230.76 -217.73)"/><path class="cls-1" d="M360.54,339.31a3.68,3.68,0,0,1-1.21,1.24,5.84,5.84,0,0,1-1.7.69,8,8,0,0,1-1.88.22,11.66,11.66,0,0,1-2.08-.19,9.92,9.92,0,0,1-2-.56l-.25-.38v-1.1a.55.55,0,0,1,.19-.42.62.62,0,0,1,.44-.18,1.79,1.79,0,0,1,.6.16c.25.11.54.22.88.35s.69.24,1.08.34a4.42,4.42,0,0,0,1.21.16,6,6,0,0,0,1.1-.11,3.32,3.32,0,0,0,1-.38,2.22,2.22,0,0,0,.76-.7,1.87,1.87,0,0,0,.3-1.07,1.82,1.82,0,0,0-.56-1.38,5.94,5.94,0,0,0-1.4-1c-.55-.28-1.16-.56-1.82-.82a8.55,8.55,0,0,1-1.82-1,5.23,5.23,0,0,1-1.4-1.45,3.86,3.86,0,0,1-.57-2.18,3.38,3.38,0,0,1,.4-1.69,3.28,3.28,0,0,1,1.05-1.14,4.78,4.78,0,0,1,1.51-.64,7.63,7.63,0,0,1,1.72-.2,14.83,14.83,0,0,1,4,.56l.19.25a1.35,1.35,0,0,1,.16.29v.88a.74.74,0,0,1-.14.39.45.45,0,0,1-.36.2,4.4,4.4,0,0,1-.95-.11c-.31-.07-.63-.16-1-.25l-1-.27a4.07,4.07,0,0,0-1-.12,5,5,0,0,0-.92.08,2.48,2.48,0,0,0-.88.3,2,2,0,0,0-.65.56,1.56,1.56,0,0,0-.25.91,1.9,1.9,0,0,0,.57,1.43,5.5,5.5,0,0,0,1.4,1,18.3,18.3,0,0,0,1.82.82,9.3,9.3,0,0,1,1.82,1,5.37,5.37,0,0,1,1.4,1.45,3.94,3.94,0,0,1,.56,2.18A3.65,3.65,0,0,1,360.54,339.31Z" transform="translate(-230.76 -217.73)"/></svg>